<svg xmlns="http://www.w3.org/2000/svg" viewBox="0 0 320 200" width="320" height="200">
<defs><linearGradient id="sky" x1="0" y1="0" x2="0" y2="1"><stop offset="0" stop-color="#59595e"/><stop offset="1" stop-color="#0b0f24"/></linearGradient></defs>
<rect width="320" height="200" fill="url(#sky)"/><circle cx="114" cy="5" r="1.3" fill="#fff" opacity="0.65"/><circle cx="66" cy="103" r="1.3" fill="#fff" opacity="0.92"/><circle cx="49" cy="60" r="0.8" fill="#fff" opacity="0.87"/><circle cx="204" cy="30" r="1.2" fill="#fff" opacity="0.35"/><circle cx="261" cy="7" r="1.1" fill="#fff" opacity="0.61"/><circle cx="217" cy="95" r="0.6" fill="#fff" opacity="0.57"/><circle cx="188" cy="11" r="1.1" fill="#fff" opacity="0.43"/><circle cx="60" cy="48" r="0.6" fill="#fff" opacity="0.59"/><circle cx="44" cy="94" r="1.2" fill="#fff" opacity="0.68"/><circle cx="41" cy="80" r="0.7" fill="#fff" opacity="0.83"/><circle cx="36" cy="57" r="0.9" fill="#fff" opacity="0.70"/><circle cx="245" cy="29" r="1.3" fill="#fff" opacity="0.77"/><circle cx="163" cy="1" r="0.6" fill="#fff" opacity="0.97"/><circle cx="228" cy="78" r="0.6" fill="#fff" opacity="0.98"/><circle cx="274" cy="44" r="1.2" fill="#fff" opacity="0.33"/><circle cx="244" cy="79" r="1.3" fill="#fff" opacity="0.85"/><circle cx="67" cy="88" r="0.8" fill="#fff" opacity="0.96"/><circle cx="167" cy="47" r="0.6" fill="#fff" opacity="0.64"/><circle cx="303" cy="93" r="0.5" fill="#fff" opacity="0.82"/><circle cx="288" cy="52" r="1.5" fill="#fff" opacity="0.77"/><circle cx="132" cy="82" r="0.8" fill="#fff" opacity="0.84"/><circle cx="117" cy="59" r="0.9" fill="#fff" opacity="0.43"/><circle cx="103" cy="102" r="1.3" fill="#fff" opacity="0.93"/><circle cx="13" cy="56" r="1.0" fill="#fff" opacity="0.47"/><circle cx="6" cy="19" r="0.6" fill="#fff" opacity="0.95"/><circle cx="193" cy="24" r="1.2" fill="#fff" opacity="0.68"/><circle cx="171" cy="39" r="1.2" fill="#fff" opacity="0.99"/><circle cx="318" cy="73" r="0.5" fill="#fff" opacity="0.66"/><circle cx="145" cy="85" r="0.6" fill="#fff" opacity="0.37"/><circle cx="303" cy="92" r="0.7" fill="#fff" opacity="0.72"/><circle cx="155" cy="53" r="14" fill="#f4f1e6"/>
<path d="M0 150 L0 140 Q20 121.95326747419313 40 141.5131859574467 Q60 97.35050393780693 80 149.83832036610693 Q100 114.29577841470018 120 145.5054367892444 Q140 93.40310964314267 160 148.66776237729937 Q180 93.40473812120035 200 145.12028272263706 Q220 119.12126847123727 240 142.559984321706 Q260 121.20869779074565 280 149.79729942977428 Q300 115.41792569262907 320 141.43950526136905 Q340 107.43241986306384 360 142.80315761454403 L320 150 Z" fill="#b3b3b8" opacity="0.9"/><path d="M0 150 L0 118 Q20 75.13291409006342 40 125.7520921221003 Q60 89.499343840871 80 121.92510445788503 Q100 79.42467759130523 120 126.53812395129353 Q140 90.60788023518398 160 119.74452318809927 Q180 85.5389480269514 200 124.53915930073708 Q220 80.5127826356329 240 120.52182077616453 Q260 81.7356250132434 280 126.61895673442632 Q300 96.04284790577367 320 123.22389375604689 Q340 87.65510895987973 360 120.28019846137613 L320 150 Z" fill="#9a9a9f" opacity="0.75"/><rect x="160.21890345215797" y="116" width="120" height="30" rx="8" fill="#e5e5ea"/>
        <rect x="170.21890345215797" y="122" width="22" height="12" rx="2" fill="#dff3ff"/><rect x="200.21890345215797" y="122" width="22" height="12" rx="2" fill="#dff3ff"/><rect x="230.21890345215797" y="122" width="22" height="12" rx="2" fill="#dff3ff"/>
        <circle cx="182.21890345215797" cy="148" r="7" fill="#1b1b22"/><circle cx="258.218903452158" cy="148" r="7" fill="#1b1b22"/>
        <rect x="0" y="154" width="320" height="3" fill="#2a2a33"/>
<rect x="0" y="186" width="320" height="14" fill="#c7c7cc"/>
</svg>