<svg xmlns="http://www.w3.org/2000/svg" viewBox="0 0 320 200" width="320" height="200">
<defs><linearGradient id="sky" x1="0" y1="0" x2="0" y2="1"><stop offset="0" stop-color="#ffbedc"/><stop offset="1" stop-color="#ff7896"/></linearGradient></defs>
<rect width="320" height="200" fill="url(#sky)"/><circle cx="203" cy="67" r="18" fill="#ffd66b" opacity="0.9"/>
<path d="M0 150 L0 140 Q20 115.73071524081752 40 142.7652724692598 Q60 99.44727681623772 80 142.87983036600053 Q100 115.99805970257148 120 148.91853879671544 Q140 112.54615251952782 160 140.85315737873316 Q180 109.56045338464901 200 141.13731876481324 Q220 98.36695851804689 240 148.48492906428874 Q260 95.26575519284233 280 145.30655776616186 Q300 120.72079910943285 320 146.31480349227786 Q340 120.06900939671323 360 146.40532503370196 L320 150 Z" fill="#eb506e" opacity="0.9"/><path d="M0 150 L0 118 Q20 81.96279256837443 40 124.59405524842441 Q60 93.48080988740548 80 118.66806852351874 Q100 72.64063071692362 120 118.41265062987804 Q140 71.04886756045744 160 124.93532292265445 Q180 97.75446661980823 200 125.8439009655267 Q220 95.15403082361445 240 125.97512078192085 Q260 99.1593804047443 280 121.1379440613091 Q300 73.90200922964141 320 123.05635677371174 Q340 86.14167320774868 360 127.49530377052724 L320 150 Z" fill="#d23755" opacity="0.75"/><rect x="0.0" y="104.4" width="27.8" height="45.6" fill="#9c011f"/><rect x="13.0" y="108.4" width="4" height="6" fill="#ffe8a3" opacity="0.69"/><rect x="13.0" y="120.4" width="4" height="6" fill="#ffe8a3" opacity="0.65"/><rect x="33.9" y="97.7" width="24.8" height="52.3" fill="#b51a38"/><rect x="46.9" y="101.7" width="4" height="6" fill="#ffe8a3" opacity="0.50"/><rect x="36.9" y="125.7" width="4" height="6" fill="#ffe8a3" opacity="0.89"/><rect x="62.5" y="93.0" width="20.5" height="57.0" fill="#c32846"/><rect x="65.5" y="97.0" width="4" height="6" fill="#ffe8a3" opacity="0.58"/><rect x="75.5" y="97.0" width="4" height="6" fill="#ffe8a3" opacity="0.76"/><rect x="65.5" y="109.0" width="4" height="6" fill="#ffe8a3" opacity="0.69"/><rect x="75.5" y="109.0" width="4" height="6" fill="#ffe8a3" opacity="0.50"/><rect x="65.5" y="121.0" width="4" height="6" fill="#ffe8a3" opacity="0.85"/><rect x="75.5" y="133.0" width="4" height="6" fill="#ffe8a3" opacity="0.55"/><rect x="89.2" y="50.6" width="28.3" height="99.4" fill="#d53a58"/><rect x="102.2" y="54.6" width="4" height="6" fill="#ffe8a3" opacity="0.78"/><rect x="92.2" y="66.6" width="4" height="6" fill="#ffe8a3" opacity="0.69"/><rect x="92.2" y="78.6" width="4" height="6" fill="#ffe8a3" opacity="0.84"/><rect x="102.2" y="78.6" width="4" height="6" fill="#ffe8a3" opacity="0.51"/><rect x="92.2" y="90.6" width="4" height="6" fill="#ffe8a3" opacity="0.70"/><rect x="102.2" y="90.6" width="4" height="6" fill="#ffe8a3" opacity="1.00"/><rect x="92.2" y="102.6" width="4" height="6" fill="#ffe8a3" opacity="0.54"/><rect x="92.2" y="114.6" width="4" height="6" fill="#ffe8a3" opacity="0.81"/><rect x="92.2" y="126.6" width="4" height="6" fill="#ffe8a3" opacity="0.83"/><rect x="122.7" y="94.4" width="25.8" height="55.6" fill="#b21735"/><rect x="135.7" y="98.4" width="4" height="6" fill="#ffe8a3" opacity="0.95"/><rect x="125.7" y="110.4" width="4" height="6" fill="#ffe8a3" opacity="0.96"/><rect x="135.7" y="110.4" width="4" height="6" fill="#ffe8a3" opacity="0.60"/><rect x="155.1" y="99.0" width="26.8" height="51.0" fill="#b01533"/><rect x="168.1" y="103.0" width="4" height="6" fill="#ffe8a3" opacity="0.55"/><rect x="168.1" y="115.0" width="4" height="6" fill="#ffe8a3" opacity="0.91"/><rect x="190.1" y="30.7" width="48.7" height="119.3" fill="#a60b29"/><rect x="193.1" y="34.7" width="4" height="6" fill="#ffe8a3" opacity="0.94"/><rect x="213.1" y="34.7" width="4" height="6" fill="#ffe8a3" opacity="0.88"/><rect x="223.1" y="34.7" width="4" height="6" fill="#ffe8a3" opacity="0.53"/><rect x="193.1" y="46.7" width="4" height="6" fill="#ffe8a3" opacity="0.66"/><rect x="203.1" y="46.7" width="4" height="6" fill="#ffe8a3" opacity="0.64"/><rect x="213.1" y="46.7" width="4" height="6" fill="#ffe8a3" opacity="0.85"/><rect x="223.1" y="46.7" width="4" height="6" fill="#ffe8a3" opacity="0.76"/><rect x="203.1" y="58.7" width="4" height="6" fill="#ffe8a3" opacity="0.54"/><rect x="213.1" y="58.7" width="4" height="6" fill="#ffe8a3" opacity="0.96"/><rect x="223.1" y="58.7" width="4" height="6" fill="#ffe8a3" opacity="0.93"/><rect x="193.1" y="70.7" width="4" height="6" fill="#ffe8a3" opacity="0.92"/><rect x="203.1" y="70.7" width="4" height="6" fill="#ffe8a3" opacity="0.97"/><rect x="213.1" y="70.7" width="4" height="6" fill="#ffe8a3" opacity="0.64"/><rect x="193.1" y="82.7" width="4" height="6" fill="#ffe8a3" opacity="0.77"/><rect x="213.1" y="82.7" width="4" height="6" fill="#ffe8a3" opacity="0.91"/><rect x="223.1" y="82.7" width="4" height="6" fill="#ffe8a3" opacity="0.85"/><rect x="193.1" y="94.7" width="4" height="6" fill="#ffe8a3" opacity="0.96"/><rect x="223.1" y="94.7" width="4" height="6" fill="#ffe8a3" opacity="0.60"/><rect x="193.1" y="106.7" width="4" height="6" fill="#ffe8a3" opacity="0.98"/><rect x="203.1" y="106.7" width="4" height="6" fill="#ffe8a3" opacity="0.63"/><rect x="213.1" y="106.7" width="4" height="6" fill="#ffe8a3" opacity="0.61"/><rect x="223.1" y="106.7" width="4" height="6" fill="#ffe8a3" opacity="0.81"/><rect x="213.1" y="118.7" width="4" height="6" fill="#ffe8a3" opacity="0.79"/><rect x="193.1" y="130.7" width="4" height="6" fill="#ffe8a3" opacity="0.92"/><rect x="203.1" y="130.7" width="4" height="6" fill="#ffe8a3" opacity="0.71"/><rect x="223.1" y="130.7" width="4" height="6" fill="#ffe8a3" opacity="0.55"/><rect x="247.1" y="86.1" width="43.4" height="63.9" fill="#b51a38"/><rect x="250.1" y="102.1" width="4" height="6" fill="#ffe8a3" opacity="0.74"/><rect x="260.1" y="102.1" width="4" height="6" fill="#ffe8a3" opacity="0.69"/><rect x="270.1" y="102.1" width="4" height="6" fill="#ffe8a3" opacity="0.96"/><rect x="280.1" y="114.1" width="4" height="6" fill="#ffe8a3" opacity="0.91"/><rect x="250.1" y="138.1" width="4" height="6" fill="#ffe8a3" opacity="0.94"/><rect x="270.1" y="138.1" width="4" height="6" fill="#ffe8a3" opacity="0.99"/><rect x="293.6" y="30.9" width="25.5" height="119.1" fill="#cf3452"/><rect x="296.6" y="58.9" width="4" height="6" fill="#ffe8a3" opacity="0.84"/><rect x="296.6" y="70.9" width="4" height="6" fill="#ffe8a3" opacity="0.84"/><rect x="306.6" y="82.9" width="4" height="6" fill="#ffe8a3" opacity="0.80"/><rect x="306.6" y="94.9" width="4" height="6" fill="#ffe8a3" opacity="0.92"/><rect x="296.6" y="106.9" width="4" height="6" fill="#ffe8a3" opacity="0.94"/><rect x="306.6" y="118.9" width="4" height="6" fill="#ffe8a3" opacity="0.79"/><rect x="306.6" y="130.9" width="4" height="6" fill="#ffe8a3" opacity="0.66"/>
<rect x="0" y="186" width="320" height="14" fill="#ff6482"/>
</svg>