<svg xmlns="http://www.w3.org/2000/svg" viewBox="0 0 320 200" width="320" height="200">
<defs><linearGradient id="sky" x1="0" y1="0" x2="0" y2="1"><stop offset="0" stop-color="#77777c"/><stop offset="1" stop-color="#0b0f24"/></linearGradient></defs>
<rect width="320" height="200" fill="url(#sky)"/><circle cx="44" cy="15" r="0.5" fill="#fff" opacity="0.46"/><circle cx="164" cy="77" r="1.1" fill="#fff" opacity="0.69"/><circle cx="34" cy="97" r="0.7" fill="#fff" opacity="0.88"/><circle cx="47" cy="12" r="0.5" fill="#fff" opacity="0.86"/><circle cx="27" cy="65" r="0.9" fill="#fff" opacity="0.69"/><circle cx="110" cy="96" r="1.2" fill="#fff" opacity="0.32"/><circle cx="242" cy="39" r="1.3" fill="#fff" opacity="0.85"/><circle cx="285" cy="27" r="1.2" fill="#fff" opacity="0.78"/><circle cx="256" cy="55" r="0.6" fill="#fff" opacity="0.43"/><circle cx="3" cy="105" r="1.2" fill="#fff" opacity="0.58"/><circle cx="209" cy="64" r="1.2" fill="#fff" opacity="0.42"/><circle cx="48" cy="62" r="1.0" fill="#fff" opacity="0.96"/><circle cx="268" cy="75" r="0.6" fill="#fff" opacity="0.99"/><circle cx="116" cy="18" r="1.1" fill="#fff" opacity="0.41"/><circle cx="278" cy="1" r="1.2" fill="#fff" opacity="0.82"/><circle cx="64" cy="43" r="0.9" fill="#fff" opacity="0.66"/><circle cx="221" cy="86" r="0.8" fill="#fff" opacity="0.48"/><circle cx="72" cy="81" r="1.3" fill="#fff" opacity="0.74"/><circle cx="226" cy="58" r="0.6" fill="#fff" opacity="0.74"/><circle cx="16" cy="21" r="1.4" fill="#fff" opacity="0.67"/><circle cx="114" cy="60" r="1.2" fill="#fff" opacity="0.78"/><circle cx="301" cy="23" r="1.1" fill="#fff" opacity="0.82"/><circle cx="83" cy="90" r="1.1" fill="#fff" opacity="0.44"/><circle cx="3" cy="101" r="0.6" fill="#fff" opacity="0.43"/><circle cx="293" cy="16" r="0.9" fill="#fff" opacity="0.31"/><circle cx="300" cy="83" r="1.4" fill="#fff" opacity="0.93"/><circle cx="312" cy="69" r="1.0" fill="#fff" opacity="0.88"/><circle cx="87" cy="32" r="1.3" fill="#fff" opacity="0.67"/><circle cx="23" cy="54" r="1.0" fill="#fff" opacity="0.97"/><circle cx="94" cy="53" r="0.7" fill="#fff" opacity="0.82"/><circle cx="94" cy="62" r="14" fill="#f4f1e6"/>
<path d="M0 150 L0 140 Q20 108.70160685200244 40 144.97890327358618 Q60 118.00356268696487 80 142.30017299531028 Q100 98.55290429946035 120 148.0176599812694 Q140 98.47699352353811 160 146.47909063613042 Q180 119.8946458408609 200 140.57126006344333 Q220 94.94665177352726 240 147.17956957174465 Q260 105.79373602103442 280 142.87720895605162 Q300 96.20524535700679 320 147.01805582037196 Q340 116.82474692631513 360 148.40150483185425 L320 150 Z" fill="#d1d1d6" opacity="0.9"/><polygon points="166.04380071163177,150 210.04380071163177,150 194.04380071163177,60 182.04380071163177,60" fill="#c7c7cc"/>
        <line x1="158.04380071163177" y1="80" x2="218.04380071163177" y2="80" stroke="#c7c7cc" stroke-width="4"/>
        <line x1="164.04380071163177" y1="100" x2="212.04380071163177" y2="100" stroke="#c7c7cc" stroke-width="4"/>
        <path d="M158.04380071163177 80 Q98.04380071163177 110 -10 90" stroke="#ffffff" stroke-opacity="0.5" stroke-width="1.5" fill="none"/>
        <path d="M218.04380071163177 80 Q278.0438007116318 110 330 90" stroke="#ffffff" stroke-opacity="0.5" stroke-width="1.5" fill="none"/>
<rect x="0" y="186" width="320" height="14" fill="#e5e5ea"/>
</svg>