<svg xmlns="http://www.w3.org/2000/svg" viewBox="0 0 320 200" width="320" height="200">
<defs><linearGradient id="sky" x1="0" y1="0" x2="0" y2="1"><stop offset="0" stop-color="#59595e"/><stop offset="1" stop-color="#0b0f24"/></linearGradient></defs>
<rect width="320" height="200" fill="url(#sky)"/><circle cx="300" cy="29" r="1.0" fill="#fff" opacity="0.86"/><circle cx="240" cy="79" r="1.4" fill="#fff" opacity="0.89"/><circle cx="75" cy="105" r="1.1" fill="#fff" opacity="0.83"/><circle cx="21" cy="18" r="0.7" fill="#fff" opacity="0.71"/><circle cx="26" cy="10" r="1.1" fill="#fff" opacity="0.64"/><circle cx="139" cy="91" r="1.2" fill="#fff" opacity="0.62"/><circle cx="20" cy="58" r="1.0" fill="#fff" opacity="0.59"/><circle cx="111" cy="92" r="1.0" fill="#fff" opacity="0.97"/><circle cx="3" cy="7" r="0.9" fill="#fff" opacity="0.54"/><circle cx="186" cy="28" r="1.0" fill="#fff" opacity="0.90"/><circle cx="10" cy="92" r="1.0" fill="#fff" opacity="0.50"/><circle cx="121" cy="51" r="1.1" fill="#fff" opacity="0.52"/><circle cx="112" cy="19" r="0.8" fill="#fff" opacity="0.47"/><circle cx="143" cy="8" r="1.3" fill="#fff" opacity="0.95"/><circle cx="306" cy="6" r="0.5" fill="#fff" opacity="0.43"/><circle cx="245" cy="45" r="0.6" fill="#fff" opacity="0.99"/><circle cx="20" cy="17" r="1.4" fill="#fff" opacity="0.30"/><circle cx="64" cy="65" r="0.7" fill="#fff" opacity="0.76"/><circle cx="123" cy="41" r="0.6" fill="#fff" opacity="0.63"/><circle cx="298" cy="9" r="0.5" fill="#fff" opacity="0.57"/><circle cx="75" cy="4" r="1.5" fill="#fff" opacity="0.63"/><circle cx="229" cy="102" r="0.6" fill="#fff" opacity="0.42"/><circle cx="131" cy="60" r="1.3" fill="#fff" opacity="0.31"/><circle cx="294" cy="50" r="1.4" fill="#fff" opacity="0.39"/><circle cx="292" cy="75" r="1.3" fill="#fff" opacity="0.69"/><circle cx="130" cy="64" r="0.6" fill="#fff" opacity="0.90"/><circle cx="153" cy="49" r="0.8" fill="#fff" opacity="0.49"/><circle cx="66" cy="74" r="1.0" fill="#fff" opacity="0.36"/><circle cx="290" cy="44" r="1.1" fill="#fff" opacity="0.55"/><circle cx="6" cy="106" r="1.1" fill="#fff" opacity="0.52"/><circle cx="206" cy="70" r="14" fill="#f4f1e6"/>
<path d="M0 150 L0 140 Q20 114.4107588478364 40 149.5702814310789 Q60 106.82076094252989 80 146.65805820841342 Q100 101.89988276036456 120 144.9101144541055 Q140 120.13280096044764 160 142.18778335954994 Q180 114.62829622486606 200 140.7694480009377 Q220 98.61667833803222 240 143.52380870375782 Q260 121.87009334610775 280 149.98503639362752 Q300 106.80865224963054 320 145.0654076365754 Q340 121.97914880746976 360 141.47109519690275 L320 150 Z" fill="#b3b3b8" opacity="0.9"/><path d="M0 150 L0 118 Q20 78.72008715523407 40 122.66999106574804 Q60 72.28181806625798 80 122.62176703847945 Q100 72.57878580829129 120 122.54483104404062 Q140 78.23721567401662 160 119.88741555437446 Q180 91.79102538852021 200 121.51573752705008 Q220 83.89632172184065 240 122.0559974592179 Q260 95.40554675972089 280 124.45393825601786 Q300 88.19116641068831 320 123.2707627415657 Q340 73.86074685258791 360 127.14241176564246 L320 150 Z" fill="#9a9a9f" opacity="0.75"/><rect x="103.90253761410713" y="116" width="120" height="30" rx="8" fill="#e5e5ea"/>
        <rect x="113.90253761410713" y="122" width="22" height="12" rx="2" fill="#dff3ff"/><rect x="143.90253761410713" y="122" width="22" height="12" rx="2" fill="#dff3ff"/><rect x="173.90253761410713" y="122" width="22" height="12" rx="2" fill="#dff3ff"/>
        <circle cx="125.90253761410713" cy="148" r="7" fill="#1b1b22"/><circle cx="201.90253761410713" cy="148" r="7" fill="#1b1b22"/>
        <rect x="0" y="154" width="320" height="3" fill="#2a2a33"/>
<rect x="0" y="186" width="320" height="14" fill="#c7c7cc"/>
</svg>